<svg id="Слой_1" data-name="Слой 1" xmlns="http://www.w3.org/2000/svg" viewBox="0 0 283.46 283.46"><path d="M141.67,103.77c-.9-.9-.26-2.81-9.08,26.46-4,13-7.67,25.18-8.31,27.1l-1.15,3.58h36.56l-8.56-28.25C146.27,117.19,142.05,104.15,141.67,103.77Z"/><path d="M209.46,0H74A74,74,0,0,0,0,74V209.46a74,74,0,0,0,74,74H209.46a74,74,0,0,0,74-74V74A74,74,0,0,0,209.46,0Zm-3,225.84-27.1.26-4.22-13.68-4.35-13.81-29.53-.38L111.76,198l-2.56,8.56c-1.41,4.86-3.32,11.12-4.22,14.06l-1.53,5.5H76.73c-14.57,0-26.58-.26-26.58-.51s8.94-24.29,19.94-53.31,25-66.85,31.44-84l11.63-30.93h28.51c16.87,0,28.76.51,29.27,1.28.89,1.4,62.12,163.74,62.38,165.53C233.45,225,223.6,225.59,206.48,225.84Z"/></svg>